<svg xmlns="http://www.w3.org/2000/svg" viewBox="0 0 256 256">
  <rect width="256" height="256" fill="#1a1a1a"/>
  <path d="M60 80 L60 176 L75 176 L75 135 L95 155 L115 135 L115 176 L130 176 L130 80 L115 80 L115 115 L95 135 L75 115 L75 80 Z" fill="#00d4ff"/>
  <path d="M150 80 L150 135 L170 135 L170 105 L190 135 L190 176 L205 176 L205 80 L190 80 L190 95 L170 95 L170 80 Z" fill="#00d4ff"/>
  <path d="M210 100 L230 85 L230 125 Z" fill="#00a8cc" opacity="0.8"/>
  <path d="M210 100 L230 125 L210 140 Z" fill="#00d4ff"/>
  <path d="M210 100 L190 115 L210 140 Z" fill="#008899" opacity="0.9"/>
  <path d="M210 100 L190 115 L190 85 Z" fill="#006677" opacity="0.7"/>
</svg>